<svg id="Layer_1" data-name="Layer 1" xmlns="http://www.w3.org/2000/svg" viewBox="0 0 190 41"><defs><style>.cls-1{fill:#fff}</style></defs><path class="cls-1" d="M63.49 16.74c0-1.37-.91-2-2.26-2h-3.38v3.93h3.58c1.24.01 2.06-.56 2.06-1.93zM110.43 14.75h-3.6v5h3.6a2.32 2.32 0 0 0 2.5-2.49 2.34 2.34 0 0 0-2.5-2.51zM128.77 14.75h-3.53v4.94h3.53a2.28 2.28 0 0 0 2.47-2.45 2.3 2.3 0 0 0-2.47-2.49zM61.81 21.83h-4v4.32h3.91c1.44 0 2.45-.62 2.45-2.14s-.99-2.18-2.36-2.18zM21 14.75h-3.57v4.94H21a2.28 2.28 0 0 0 2.47-2.45A2.3 2.3 0 0 0 21 14.75z"/><path class="cls-1" d="M184 .44H5.87A4.93 4.93 0 0 0 .94 5.37V35.5a4.94 4.94 0 0 0 4.93 4.94H184a4.94 4.94 0 0 0 4.94-4.94V5.37A4.94 4.94 0 0 0 184 .44zm-34.38 10.78c4.79 0 8.46 2.89 9.18 7.54h-3.86a5.48 5.48 0 0 0-10.68 0h-3.83c.71-4.65 4.36-7.54 9.19-7.54zM24 29.44L20.46 23h-3v6.46h-3.72v-18h7.68c3.41 0 5.78 2.07 5.78 5.76a5.34 5.34 0 0 1-2.88 5.14l3.82 7.06zm24.31-7.3c0 4.8-2.92 7.56-7.63 7.56S33 26.94 33 22.14V11.48h3.69v10.61c0 2.81 1.37 4.32 4 4.32s3.94-1.51 3.94-4.32V11.48h3.69zm13.92 7.3h-8v-18h7.52c3.24 0 5.59 1.61 5.59 5A4 4 0 0 1 65.51 20 4.22 4.22 0 0 1 68 24.21c0 3.43-2.4 5.23-5.81 5.23zm19.66-6.92v6.92h-3.7v-6.92l-6.81-11h4.29L80 18.85l4.34-7.37h4.32zm16-.5h-7.62v-3.26h7.59zm13 1h-4v6.39h-3.72v-18h7.77c3.41 0 5.79 2.09 5.79 5.79s-2.41 5.85-5.82 5.85zm20.86 6.39L128.26 23h-3v6.46h-3.72v-18h7.69c3.4 0 5.78 2.07 5.78 5.76a5.34 5.34 0 0 1-2.88 5.14l3.87 7.08zm17.85.26c-4.88 0-8.55-2.95-9.21-7.68h3.81A5.49 5.49 0 0 0 155 22h3.84c-.69 4.75-4.38 7.7-9.22 7.7zm18.4-.23h-3.72v-3.7H168zm6.36-7.54h-10.05v-3.26h10.08zm1.44-7.16h-11.49v-3.26h11.52z"/></svg>
